<?xml version="1.0" encoding="UTF-8" standalone="no"?> <svg xmlns="http://www.w3.org/2000/svg" width="15.5" height="15.5" viewBox="0 0 15.5 15.5">
  <path id="face-laugh-wink-emoji" d="M7.75,8a7.75,7.75,0,1,0,7.75,7.75A7.749,7.749,0,0,0,7.75,8Zm4.419,12.169A6.247,6.247,0,1,1,14,15.75,6.207,6.207,0,0,1,12.169,20.169ZM10.25,12.875a1.88,1.88,0,0,0-1.872,1.316A.375.375,0,0,0,9,14.528l.3-.266a1.623,1.623,0,0,1,1.906,0l.3.266a.374.374,0,0,0,.619-.337,1.867,1.867,0,0,0-1.866-1.316Zm-5,1.875a1,1,0,1,0-1-1A1,1,0,0,0,5.25,14.75Zm6.075,2H4.175a.419.419,0,0,0-.422.469A3.793,3.793,0,0,0,7.537,20.5h.425a3.793,3.793,0,0,0,3.784-3.281.419.419,0,0,0-.422-.469Z" transform="translate(0 -8)"/>
</svg>
